<svg class="svg-icon" style="width: 1em; height: 1em;vertical-align: middle;fill: currentColor;overflow: hidden;" viewBox="0 0 1024 1024" version="1.1" xmlns="http://www.w3.org/2000/svg"><path d="M851.672 273.064H749.472V170.44C749.472 76.336 673.056 0 579.136 0h-408.8C76.416 0 0 76.336 0 170.44v546.136c0 32.92 41.832 46.512 61.32 20.48l132.936-177.6a33.632 33.632 0 0 1 27.176-13.552h51.104v102.4c0 94.112 76.416 170.664 170.336 170.664h357.696c10.824 0 20.736 4.944 27.184 13.56l132.936 177.6c19.616 26.208 61.32 12.256 61.32-20.48V443.496c0-94.104-76.416-170.44-170.336-170.44zM272.536 443.504v34.36h-51.104c-32 0-62.536 15.048-81.68 40.64L68.136 614.176V170.44c0-56.464 45.84-102.4 102.2-102.4h408.8c56.352 0 102.2 45.936 102.2 102.4v102.632H442.872c-93.92 0-170.336 76.328-170.336 170.432z m681.336 443.736l-71.616-95.672c-19.152-25.584-49.68-40.64-81.68-40.64H442.864c-56.36 0-102.2-46.16-102.2-102.624v-204.8c0-56.464 45.84-102.4 102.2-102.4h408.8c56.352 0 102.2 45.936 102.2 102.4v443.736z m-442.872-307.2a34.104 34.104 0 0 0 34.072-34.136 34.104 34.104 0 0 0-34.072-34.136 34.104 34.104 0 0 0-34.064 34.136 34.104 34.104 0 0 0 34.064 34.136z m136.272 0a34.104 34.104 0 0 0 34.064-34.136 34.104 34.104 0 0 0-34.064-34.136 34.104 34.104 0 0 0-34.072 34.136 34.104 34.104 0 0 0 34.072 34.136z m136.264 0a34.104 34.104 0 0 0 34.064-34.136 34.104 34.104 0 0 0-34.064-34.136 34.104 34.104 0 0 0-34.064 34.136 34.104 34.104 0 0 0 34.064 34.136z" fill="#20A0FF" /></svg>